<svg width="172" height="172" viewBox="0 0 172 172" fill="none" xmlns="http://www.w3.org/2000/svg">
<path d="M84.1266 165.984C82.242 162.65 80.3213 159.352 79.9226 158.627C79.4877 157.902 77.3495 154.242 75.1751 150.437C70.5363 142.427 65.4263 133.548 60.8237 125.612C59.0479 122.531 56.0762 117.385 54.2279 114.196C52.3796 111.007 48.973 105.063 46.6173 100.968C41.8698 92.7774 41 90.458 41 86.1816C41 82.5937 41.7611 79.9119 43.7543 76.3603C44.6603 74.7295 45.4576 73.4248 45.5301 73.4248C45.6388 73.4248 47.4871 76.5778 52.7783 85.7467C54.1917 88.2473 57.5621 94.0458 60.2076 98.6122C62.8532 103.215 66.1874 108.977 67.637 111.478C69.0866 113.978 72.0946 119.197 74.3416 123.075C76.5885 126.952 78.6904 130.649 79.0529 131.229C82.5682 137.354 86.6997 144.529 87.2795 145.472L88.0406 146.704L89.0553 144.928C89.9976 143.261 91.8821 139.999 93.1868 137.752C96.5572 131.954 100.834 124.561 102.138 122.277C103.008 120.719 103.805 119.451 103.878 119.451C103.95 119.451 104.711 120.647 105.545 122.06C107.683 125.684 108.48 128.438 108.48 131.954C108.48 136.882 108.517 136.846 97.1733 156.416C94.9263 160.294 92.0271 165.404 90.6862 167.723C89.3815 170.079 88.1493 172 87.9319 172C87.7507 172 86.0111 169.282 84.1266 165.984Z" fill="#6460F0"/>
<path d="M87.2428 134.599C86.9892 134.128 84.8147 130.432 82.4953 126.337C80.1396 122.241 77.1317 117.023 75.7907 114.74C74.4498 112.456 70.7895 106.078 67.6366 100.606C64.4836 95.1332 61.4756 89.9145 60.932 89.0085C55.3872 80.0933 53.3939 71.0693 54.9523 61.5742C56.0395 54.8334 55.4959 55.9569 76.588 19.4262C80.6833 12.3592 84.8147 5.18352 85.7932 3.51645C86.7717 1.84937 87.7502 0.399735 87.9677 0.327253C88.5113 0.146049 90.722 4.13254 91.7005 6.99556C92.6427 9.78611 92.7515 14.7873 91.9179 17.4692C91.1931 19.7161 89.3086 23.2314 83.5825 32.9077C83.4013 33.2339 82.0967 35.4446 80.7557 37.8003C79.4148 40.1559 77.929 42.729 77.4578 43.5263C76.9867 44.3236 75.4283 47.0054 73.9787 49.506C68.0352 59.8347 67.6366 60.9944 67.6728 67.8077C67.709 75.0921 67.1654 73.9324 82.1329 99.8083C86.7717 107.89 87.9314 109.63 88.2938 109.231C88.5475 108.977 90.3596 106.005 92.2803 102.599C94.2373 99.2284 97.6802 93.2487 99.8909 89.3709C102.138 85.4932 105.037 80.4195 106.378 78.1363C107.683 75.8531 108.951 73.9686 109.205 73.9686C109.785 73.9686 111.995 77.8464 113.01 80.6731C114.17 83.9711 114.134 87.8126 112.938 91.4004C112.14 93.7923 111.705 94.6983 109.966 97.5251C109.712 97.9238 108.48 100.134 107.139 102.418C105.834 104.701 104.385 107.238 103.914 108.035C103.442 108.832 101.812 111.623 100.326 114.232C98.8037 116.841 97.2816 119.487 96.9191 120.103C96.5567 120.719 94.9621 123.474 93.4038 126.228C90.0334 132.099 88.0401 135.397 87.8952 135.397C87.8227 135.397 87.5328 135.034 87.2428 134.599Z" fill="#6460F0"/>
<path d="M113.953 125.539C112.902 124.162 111.271 120.755 110.582 118.4C109.894 116.225 109.785 115.21 109.966 112.782C110.22 109.158 111.017 106.839 113.482 102.599C117.903 95.0606 119.027 91.7989 119.063 86.4715C119.099 82.3763 118.266 78.6435 116.526 75.2368C115.475 73.1349 110.401 64.2921 109.495 62.915C109.097 62.2989 109.097 62.3351 107.285 65.4518C106.741 66.3578 104.82 69.692 102.972 72.8812C101.124 76.0704 99.2754 79.2958 98.8405 80.0206C95.4338 85.9641 93.0057 90.2043 92.0997 91.7264C91.4836 92.7412 90.3964 94.6257 89.6715 95.9666C88.9105 97.3437 88.1494 98.431 87.932 98.431C87.7508 98.431 86.1924 96.0391 84.5253 93.0673C82.822 90.1318 80.0677 85.3843 78.4006 82.485C73.1457 73.4973 73.0733 73.3161 73.0733 67.8075C73.0733 62.3351 73.037 62.4438 77.857 54.036C92.9695 27.6164 98.2244 18.7012 98.623 18.7012C99.3116 18.7012 101.957 23.8836 102.61 26.5654C103.516 30.0083 103.516 31.6391 102.646 35.0458C102.066 37.2565 98.3693 44.7221 96.811 46.7878C96.666 47.0052 96.1224 47.875 95.6513 48.781C95.1439 49.6871 93.2231 53.0212 91.3749 56.2104C89.5266 59.3996 87.2796 63.2774 86.4099 64.7995L84.779 67.6263L85.7575 69.3296C86.3011 70.3081 86.9897 71.5403 87.3159 72.0839C87.6058 72.6637 87.9682 72.9899 88.1494 72.8087C88.2944 72.6637 89.3091 70.9604 90.3964 69.0759C91.4836 67.1914 94.0929 62.625 96.2311 58.9285C98.3693 55.2319 102.102 48.7448 104.53 44.5409C106.958 40.3007 109.097 36.8941 109.278 36.9303C109.604 37.039 111.996 41.098 119.824 54.7608C121.636 57.95 124.354 62.6975 125.876 65.2706C128.92 70.5255 130.116 73.3161 131.167 77.5925C133.016 85.0581 132.327 93.176 129.174 100.424C128.232 102.635 125.586 107.346 118.555 119.451C117.106 121.951 115.692 124.416 115.403 124.995C114.823 126.083 114.46 126.191 113.953 125.539Z" fill="#6460F0"/>
</svg>
