<svg width="240" height="145" viewBox="0 0 240 145" fill="none" xmlns="http://www.w3.org/2000/svg">
<g clip-path="url(#clip0_206_2)">
<path d="M0.600009 144.2C1.10001 143.7 3.70001 141.6 6.30001 139.5C10.7 136 12.3 133.4 21.6 114.8L32 94.1L26.3 89.8L20.7 85.5L41 85.2C52.1 85.1 61.5 85.2 61.7 85.4C62 85.6 57.2 95.5 51.1 107.3C45 119.1 40 129 40 129.4C40 129.7 48.3 130 58.5 130H77L73.3 137.5L69.6 145H34.6C15.3 145 8.69061e-06 144.6 0.600009 144.2Z" fill="#10E4F9"/>
<path d="M78 144.4C78 144.1 83.6 133 90.5 119.6C97.4 106.2 103 94.9 103 94.4C103 93.9 100.4 91.7 97.4 89.5L91.8 85.5L132.4 85.2L173 85L179.5 89.7C183 92.4 185.9 94.8 186 95.3C186.1 97.3 176.6 114.5 173.5 117.9C167 125 162.8 126.3 144.1 126.8L127.8 127.2L122.1 123.2L116.4 119.2L109.9 132.1L103.5 145H90.8C83.7 145 78 144.7 78 144.4ZM151.3 109.9C153.4 109 158 102.5 158 100.6C158 100.3 150.8 100 142 100H126L123.5 105C122.1 107.7 121 110.2 121 110.5C121 111.5 148.9 111 151.3 109.9Z" fill="#10E4F9"/>
<path d="M169.6 139.3C175 134.1 176.8 131.4 185.3 114.3C190.7 103.8 195 94.8 195 94.3C195 93.9 192.7 91.9 190 90C187.3 88.1 185 86.2 185 85.8C185 85.3 194 85 205 85C216 85 225 85.3 225 85.6C225 85.9 220 96 214 108.1L203 130H221.5C231.7 130 240 130.3 240 130.6C240 130.9 238.4 134.3 236.4 138.1L232.8 145H198.1H163.5L169.6 139.3Z" fill="#10E4F9"/>
<path d="M79.1 48C84.7 37.1 89.7 28.3 90.2 28.6C91.5 29.4 99 40.8 99 41.9C99 42.5 98 45 96.8 47.5C95.6 49.9 94.9 52.2 95.2 52.5C95.5 52.8 100.1 52.9 105.4 52.8L115.1 52.5L104.6 37C98.8 28.5 94.3 21.4 94.5 21.2C94.8 20.8 152.2 64.1 155.5 67.1C156 67.6 137.7 68 112.6 68H68.9L79.1 48Z" fill="#10E4F9"/>
<path d="M119.7 31.3C98.4 15 81.2 1.50003 81.4 1.30003C81.6 1.10003 93.6 6.80003 108.1 14.1C122.6 21.3 139.1 29.4 144.8 32.1L155 36.9L158 31C159.7 27.7 161 24.6 161 24C161 23.3 157.6 23 151.2 23.1L141.4 23.2L126.5 15.7L111.5 8.10003H149.3L187.2 8.00003L173.7 34.2C166.4 48.6 159.9 60.5 159.4 60.7C158.9 60.8 141.1 47.6 119.7 31.3Z" fill="#10E4F9"/>
</g>
<defs>
<clipPath id="clip0_206_2">
<rect width="240" height="145" fill="white"/>
</clipPath>
</defs>
</svg>
