<svg width="147" height="104" viewBox="0 0 147 104" fill="none" xmlns="http://www.w3.org/2000/svg">
<path d="M0.491628 0.888738C0.434901 0.964374 0.378174 1.07783 0.378174 1.15346C0.378174 1.21019 15.1462 12.1964 33.2044 25.5462C51.2625 38.8771 66.0684 49.9011 66.1251 50.0335C66.1629 50.1469 64.4422 53.6262 62.3055 57.7484C60.1687 61.8706 58.4669 65.3309 58.5236 65.4255C58.5804 65.5389 58.7127 65.6146 58.8073 65.6146C58.8829 65.6146 62.1164 63.2698 65.9927 60.4146C69.8691 57.5593 73.1025 55.2146 73.1971 55.2146C73.2916 55.2146 76.4684 57.5215 80.288 60.3389C84.0887 63.1375 87.3033 65.4822 87.4545 65.5389C87.5869 65.5957 87.7571 65.5389 87.8327 65.4444C87.8895 65.3309 86.2065 61.8517 84.0698 57.7106C81.9142 53.5884 80.2124 50.1091 80.2502 50.0146C80.288 49.9011 95.1316 38.896 113.228 25.5273C131.343 12.1586 146.148 1.17237 146.148 1.11565C146.167 1.04001 146.054 0.945465 145.94 0.907647C145.657 0.794192 84.5236 15.2407 84.3156 15.4487C84.2211 15.5433 81.7062 20.3462 78.6996 26.1513L73.216 36.7026L72.4596 35.3222C72.0436 34.5658 69.5665 29.7629 66.9382 24.6764C64.3098 19.5709 62.1353 15.392 62.1353 15.3731C62.1164 15.3542 48.3695 12.1018 31.5782 8.13092C14.7869 4.17892 0.945447 0.888738 0.813083 0.850919C0.699628 0.813101 0.548356 0.83201 0.491628 0.888738Z" fill="#10E4F9"/>
<path d="M26.4727 90.6691V103.244H40.9381H55.4036V99.9346V96.6255H44.0581H32.7127V87.36V78.0946H29.5927H26.4727V90.6691Z" fill="#10E4F9"/>
<path d="M58.6182 90.6691V103.244H73.0836H87.5491V99.9346V96.6255H76.2982H65.0473V90.5746V84.5237H76.2982H87.5491V81.3091V78.0946H73.0836H58.6182V90.6691Z" fill="#10E4F9"/>
<path d="M90.7637 90.6691V103.244H93.9782H97.1928V98.6109V93.9782H103.679H110.145L112.15 98.4786L114.173 102.96L117.69 103.017C119.619 103.036 121.207 103.017 121.207 102.96C121.207 102.903 119.959 100.105 118.447 96.7389L115.705 90.6502L118.447 84.5426C119.959 81.1767 121.207 78.3593 121.207 78.2647C121.207 78.1702 119.695 78.0946 117.747 78.0946H114.287L112.207 82.6706L110.127 87.2655L103.66 87.3222L97.1928 87.36V82.7273V78.0946H93.9782H90.7637V90.6691Z" fill="#10E4F9"/>
</svg>
