<svg width="24" height="24" viewBox="0 0 24 24" fill="none" xmlns="http://www.w3.org/2000/svg">
<g clip-path="url(#clip0_81_1434)">
<path fill-rule="evenodd" clip-rule="evenodd" d="M1.71449 0.642853C1.12276 0.642853 0.643066 1.12255 0.643066 1.71428V6.85714C0.643066 9.64314 2.76977 11.9324 5.48832 12.1901C6.37473 14.2777 8.23564 15.8515 10.5002 16.3406V20.7857H7.71449C6.88607 20.7857 6.21449 21.4574 6.21449 22.2857C6.21449 23.1141 6.88607 23.7857 7.71449 23.7857H16.2859C17.1144 23.7857 17.7859 23.1141 17.7859 22.2857C17.7859 21.4574 17.1144 20.7857 16.2859 20.7857H13.5002V16.3406C15.7648 15.8515 17.6256 14.2777 18.5121 12.1901C21.2306 11.9325 23.3574 9.64314 23.3574 6.85714V1.71428C23.3574 1.12255 22.8777 0.642853 22.2859 0.642853H1.71449ZM7.07164 2.78571V9.42857C7.07164 12.1505 9.27823 14.3571 12.0002 14.3571C14.7222 14.3571 16.9288 12.1505 16.9288 9.42857V2.78571H7.07164ZM4.92878 2.78571H2.78592V6.85714C2.78592 8.25666 3.68035 9.44727 4.92878 9.88853V2.78571ZM19.0716 2.78571V9.88853C20.32 9.44727 21.2145 8.25666 21.2145 6.85714V2.78571H19.0716Z" fill="#10E4F9"/>
</g>
<defs>
<clipPath id="clip0_81_1434">
<rect width="24" height="24" fill="white"/>
</clipPath>
</defs>
</svg>
