<svg width="24" height="24" viewBox="0 0 24 24" fill="none" xmlns="http://www.w3.org/2000/svg">
<path fill-rule="evenodd" clip-rule="evenodd" d="M12.7242 0.924474C12.3146 0.548979 11.6858 0.548979 11.2762 0.924474L1.5464 9.84348C0.970795 10.3711 0.643066 11.1161 0.643066 11.897V20.5714C0.643066 22.11 1.89028 23.3571 3.42878 23.3571H20.5716C22.1102 23.3571 23.3574 22.11 23.3574 20.5714V11.897C23.3574 11.1161 23.0296 10.3711 22.4541 9.84348L12.7242 0.924474ZM2.99438 11.4231L12.0002 3.16776L21.006 11.4231C21.1389 11.5449 21.2145 11.7168 21.2145 11.897V20.5714C21.2145 20.9265 20.9267 21.2143 20.5716 21.2143H13.7145V15.4286C13.7145 14.4818 12.947 13.7143 12.0002 13.7143C11.0534 13.7143 10.2859 14.4818 10.2859 15.4286V21.2143H3.42878C3.07373 21.2143 2.78592 20.9265 2.78592 20.5714V11.897C2.78592 11.7168 2.86156 11.5449 2.99438 11.4231Z" fill="#10E4F9"/>
</svg>
