<svg width="315" height="49" viewBox="0 0 315 49" fill="none" xmlns="http://www.w3.org/2000/svg">
<path d="M10.6989 10.7125H21.3289V5.35002H13.0842C8.81165 5.35002 5.34888 8.82184 5.34888 13.1046V21.3685H10.6989V10.7125ZM20.221 24.0497L10.6989 33.5944V26.7309H5.35001V42.7494H21.3301V37.3869H14.4824L24.0045 27.8411L20.221 24.0497ZM37.309 37.3869H26.6789V42.7494H34.9237C39.1962 42.7494 42.659 39.2776 42.659 34.9948V26.7309H37.309V37.3869ZM26.6789 5.35002V10.7125H33.5266L24.0045 20.2583L27.7869 24.0497L37.309 14.5039V21.3673H42.659V5.35002H26.6789Z" fill="#10E4F9"/>
<path d="M313.518 6L308.782 6.608C308.782 4.976 307.95 4.208 305.838 4.208C303.982 4.208 302.99 5.104 302.99 6.192C302.99 10.256 314.35 7.536 314.35 15.728C314.35 19.6 311.118 22.384 305.39 22.384C300.014 22.384 297.614 20.496 297.614 16.08L302.478 15.44C302.478 17.616 303.438 18.544 305.838 18.544C308.046 18.544 309.038 17.616 309.038 16.304C309.038 11.632 297.806 14.96 297.806 6.736C297.806 3.056 300.878 0.400002 306.318 0.400002C311.406 0.400002 313.518 2.448 313.518 6Z" fill="#10E4F9"/>
<path d="M291.797 22H286.933V4.816H281.909V0.783997H296.949L296.629 4.816H291.797V22Z" fill="#10E4F9"/>
<path d="M276.183 14.768H281.239C280.919 19.088 277.751 22.384 272.599 22.384C267.063 22.384 264.023 18.512 264.023 12.08C264.023 5.136 266.967 0.400002 273.175 0.400002C278.647 0.400002 281.239 3.568 280.855 8.112L275.895 8.656C276.023 5.904 275.127 4.368 272.887 4.368C270.263 4.368 269.143 7.152 269.143 11.472C269.143 16.368 270.423 18.416 272.887 18.416C275.031 18.416 275.991 16.656 276.183 14.768Z" fill="#10E4F9"/>
<path d="M262.577 22H249.201V0.783997H262.801L262.353 4.752H254.065V9.2H260.817V13.04H254.065V18.032H262.577V22Z" fill="#10E4F9"/>
<path d="M242.172 22H237.308V4.816H232.284V0.783997H247.324L247.004 4.816H242.172V22Z" fill="#10E4F9"/>
<path d="M230.222 22H225.358V0.783997H230.222V22Z" fill="#10E4F9"/>
<path d="M221.532 22H216.668V13.008H209.628V22H204.764V0.783997H209.628V8.976H216.668V0.783997H221.532V22Z" fill="#10E4F9"/>
<path d="M196.933 14.768H201.989C201.669 19.088 198.501 22.384 193.349 22.384C187.813 22.384 184.773 18.512 184.773 12.08C184.773 5.136 187.717 0.400002 193.925 0.400002C199.397 0.400002 201.989 3.568 201.605 8.112L196.645 8.656C196.773 5.904 195.877 4.368 193.637 4.368C191.013 4.368 189.893 7.152 189.893 11.472C189.893 16.368 191.173 18.416 193.637 18.416C195.781 18.416 196.741 16.656 196.933 14.768Z" fill="#10E4F9"/>
<path d="M183.535 22H177.871L174.191 13.648H172.847V22H167.983V0.783997H175.599C180.463 0.783997 182.863 2.832 182.863 6.96C182.863 9.712 181.295 11.696 178.863 12.784L183.535 22ZM172.847 10H174.895C176.815 10 177.807 8.976 177.807 7.216C177.807 5.584 176.911 4.528 174.927 4.528H172.847V10Z" fill="#10E4F9"/>
<path d="M165.977 22H160.537C160.249 20.656 159.929 19.312 159.545 17.808H152.505C152.153 19.152 151.801 20.528 151.481 22H147.033C148.921 14.64 151.129 7.568 153.529 0.783997H159.449C161.945 7.824 164.089 14.928 165.977 22ZM153.497 14.064H158.521C158.041 12.144 157.465 10.192 156.857 8.112C156.601 7.216 156.249 5.872 156.025 4.976H155.961C155.737 5.936 155.417 7.216 155.161 8.144C154.585 10.192 154.009 12.112 153.497 14.064Z" fill="#10E4F9"/>
<path d="M137.049 6L132.313 6.608C132.313 4.976 131.481 4.208 129.369 4.208C127.513 4.208 126.521 5.104 126.521 6.192C126.521 10.256 137.881 7.536 137.881 15.728C137.881 19.6 134.649 22.384 128.921 22.384C123.545 22.384 121.145 20.496 121.145 16.08L126.009 15.44C126.009 17.616 126.969 18.544 129.369 18.544C131.577 18.544 132.569 17.616 132.569 16.304C132.569 11.632 121.337 14.96 121.337 6.736C121.337 3.056 124.409 0.400002 129.849 0.400002C134.937 0.400002 137.049 2.448 137.049 6Z" fill="#10E4F9"/>
<path d="M115.677 10.448L114.109 9.712L115.997 5.36H113.885V0.783997H118.525V5.072L115.677 10.448Z" fill="#10E4F9"/>
<path d="M106.047 22H101.183V4.816H96.1593V0.783997H111.199L110.879 4.816H106.047V22Z" fill="#10E4F9"/>
<path d="M87.534 22H82.67V0.783997H95.566L95.118 4.752H87.534V9.776H93.614V13.616H87.534V22Z" fill="#10E4F9"/>
<path d="M78.8153 22H73.9513V0.783997H78.8153V22Z" fill="#10E4F9"/>
<path d="M71.472 22H65.808L62.128 13.648H60.784V22H55.92V0.783997H63.536C68.4 0.783997 70.8 2.832 70.8 6.96C70.8 9.712 69.232 11.696 66.8 12.784L71.472 22ZM60.784 10H62.832C64.752 10 65.744 8.976 65.744 7.216C65.744 5.584 64.848 4.528 62.864 4.528H60.784V10Z" fill="#10E4F9"/>
<path d="M310.337 44.2874H308.656V33.4264H310.078L310.229 35.0426C311.285 33.8789 312.341 33.1893 313.418 33.1893C313.612 33.1893 313.806 33.2109 314 33.254L313.871 34.8271C313.655 34.8056 313.44 34.784 313.246 34.784C312.233 34.784 311.587 35.0426 310.337 36.3787V44.2874Z" fill="#10E4F9"/>
<path d="M305.36 41.6368L306.2 42.7574C304.756 43.8564 303.356 44.5244 301.287 44.5244C297.925 44.5244 296.395 42.5203 296.395 38.9862C296.395 35.7537 297.99 33.1893 301.416 33.1893C304.843 33.1893 306.157 35.409 305.942 39.0293H298.141C298.162 41.9385 299.326 43.1884 301.416 43.1884C303.054 43.1884 304.433 42.4126 305.36 41.6368ZM298.184 37.7794H304.153C304.175 35.8615 303.313 34.4823 301.33 34.4823C299.218 34.4823 298.356 36.0985 298.184 37.7794Z" fill="#10E4F9"/>
<path d="M292.21 33.6203L292.943 31.3792H294.882L293.158 34.2884C293.762 34.784 294.149 35.7537 294.149 36.745C294.149 38.706 292.878 40.3869 289.969 40.3869C289.365 40.3869 288.697 40.3007 288.245 40.1714C287.9 40.4085 287.598 40.8179 287.598 41.2058C287.598 42.7143 295.378 40.6671 295.378 44.7615C295.378 47.1966 292.835 48.1879 289.926 48.1879C286.176 48.1879 285.293 47.0026 285.293 45.5373C285.293 44.4598 285.982 43.5547 286.952 42.9513C286.262 42.6712 285.982 42.2186 285.982 41.529C285.982 40.7964 286.521 39.999 287.232 39.6327C286.305 39.0939 285.853 38.0596 285.853 36.8959C285.853 34.7194 287.555 33.1893 290.034 33.1893C290.766 33.1893 291.542 33.2971 292.21 33.6203ZM290.098 39.0939C291.477 39.0939 292.426 38.2535 292.426 36.8097C292.426 35.3659 291.52 34.5254 289.926 34.5254C288.611 34.5254 287.577 35.409 287.577 36.8097C287.577 38.3612 288.503 39.0939 290.098 39.0939ZM288.331 43.2746C287.685 43.7056 287.017 44.4382 287.017 45.214C287.017 46.1622 287.663 46.8949 290.12 46.8949C292.275 46.8949 293.654 46.2053 293.654 45.0201C293.654 43.1668 291.025 43.6194 288.331 43.2746Z" fill="#10E4F9"/>
<path d="M283.514 44.2874H281.984L281.855 42.8651C280.669 43.8995 279.527 44.5244 277.954 44.5244C275.605 44.5244 274.42 43.3392 274.42 41.4859C274.42 39.2017 276.252 37.8872 280.863 37.8872H281.682V37.0898C281.682 35.1719 281.036 34.5254 279.441 34.5254C278.04 34.5254 276.618 34.9995 275.454 35.7106L274.916 34.4823C276.403 33.6419 277.954 33.1893 279.527 33.1893C282.07 33.1893 283.363 33.9867 283.363 37.0467V41.6799C283.363 42.6065 283.449 43.5763 283.514 44.2874ZM281.682 41.5075V39.137H280.583C277.114 39.137 276.209 39.8266 276.209 41.3135C276.209 42.391 276.877 43.1884 278.277 43.1884C279.376 43.1884 280.432 42.6496 281.682 41.5075Z" fill="#10E4F9"/>
<path d="M272.155 44.2874H270.474V37.5208C270.474 35.2797 269.806 34.5254 268.686 34.5254C267.565 34.5254 266.617 35.0426 265.259 36.1416V44.2874H263.578V33.4264H265.001L265.13 34.7625C266.358 33.8143 267.436 33.1893 268.901 33.1893C270.948 33.1893 272.155 34.2668 272.155 37.176V44.2874Z" fill="#10E4F9"/>
<path d="M260.744 44.2874H259.214L259.085 42.8651C257.899 43.8995 256.757 44.5244 255.184 44.5244C252.835 44.5244 251.65 43.3392 251.65 41.4859C251.65 39.2017 253.482 37.8872 258.093 37.8872H258.912V37.0898C258.912 35.1719 258.266 34.5254 256.671 34.5254C255.27 34.5254 253.848 34.9995 252.684 35.7106L252.146 34.4823C253.632 33.6419 255.184 33.1893 256.757 33.1893C259.3 33.1893 260.593 33.9867 260.593 37.0467V41.6799C260.593 42.6065 260.679 43.5763 260.744 44.2874ZM258.912 41.5075V39.137H257.813C254.344 39.137 253.439 39.8266 253.439 41.3135C253.439 42.391 254.107 43.1884 255.507 43.1884C256.606 43.1884 257.662 42.6496 258.912 41.5075Z" fill="#10E4F9"/>
<path d="M246.109 30H248.587C249.104 35.1504 249.363 39.5465 249.471 44.2874H247.66C247.617 41.2704 247.51 37.7363 247.337 34.3099C247.294 33.4048 247.229 32.2196 247.186 31.4869H247.143C246.971 32.0041 246.712 32.7799 246.54 33.2755L242.639 44.2874H241.109L237.209 33.2755C237.036 32.7799 236.778 32.0257 236.605 31.4869H236.562C236.519 32.2843 236.455 33.4695 236.412 34.3099C236.261 37.4562 236.153 40.9257 236.088 44.2874H234.429C234.515 39.5896 234.838 34.7194 235.312 30H237.791L241.239 39.6758C241.497 40.3869 241.756 41.3351 241.928 42.1971H241.971C242.144 41.3782 242.445 40.3007 242.661 39.6758L246.109 30Z" fill="#10E4F9"/>
<path d="M221.005 48.1879L220.121 46.9811C221.307 46.2053 222.018 45.2571 222.018 43.8564C222.018 42.4341 220.466 39.5034 218.721 33.4264H220.488C221.113 35.5813 221.845 37.7794 222.513 39.7835C222.75 40.4947 223.074 41.6799 223.224 42.4126H223.268C223.418 41.6799 223.72 40.5378 223.936 39.9128C224.539 38.1458 225.293 35.8399 225.961 33.4264H227.534C226.651 36.6157 225.638 39.762 224.108 43.7917C223.16 46.27 222.362 47.2828 221.005 48.1879Z" fill="#10E4F9"/>
<path d="M217.483 35.9477L215.953 36.077C216.018 35.1288 214.962 34.5039 213.367 34.5039C211.794 34.5039 211.018 35.1504 211.018 36.1416C211.018 39.0293 217.936 36.8743 217.936 41.2058C217.936 43.5978 215.544 44.5244 213.432 44.5244C209.962 44.5244 208.906 43.1022 209.122 41.3782L210.781 41.2273C210.587 42.391 211.536 43.1668 213.561 43.1668C214.703 43.1668 216.19 42.7358 216.19 41.4428C216.19 38.5336 209.294 40.6455 209.294 36.2494C209.294 34.3746 210.954 33.1893 213.453 33.1893C215.845 33.1893 217.613 34.0298 217.483 35.9477Z" fill="#10E4F9"/>
<path d="M206.891 44.2874H205.361L205.231 42.8651C204.046 43.8995 202.904 44.5244 201.331 44.5244C198.982 44.5244 197.797 43.3392 197.797 41.4859C197.797 39.2017 199.629 37.8872 204.24 37.8872H205.059V37.0898C205.059 35.1719 204.413 34.5254 202.818 34.5254C201.417 34.5254 199.995 34.9995 198.831 35.7106L198.293 34.4823C199.779 33.6419 201.331 33.1893 202.904 33.1893C205.447 33.1893 206.74 33.9867 206.74 37.0467V41.6799C206.74 42.6065 206.826 43.5763 206.891 44.2874ZM205.059 41.5075V39.137H203.96C200.491 39.137 199.585 39.8266 199.585 41.3135C199.585 42.391 200.254 43.1884 201.654 43.1884C202.753 43.1884 203.809 42.6496 205.059 41.5075Z" fill="#10E4F9"/>
<path d="M196.353 42.9513L196.59 44.2443C196.03 44.4167 195.405 44.5244 194.672 44.5244C192.539 44.5244 191.784 43.6625 191.784 41.4213V34.7625H189.91V33.4264H191.784V30.3448L193.465 30.1293V33.4264H196.461L196.288 34.7625H193.465V41.2704C193.465 42.5419 193.724 43.1884 194.995 43.1884C195.469 43.1884 196.03 43.0806 196.353 42.9513Z" fill="#10E4F9"/>
<path d="M188.356 44.2874H186.675V37.5208C186.675 35.2797 186.007 34.5254 184.886 34.5254C183.766 34.5254 182.817 35.0426 181.46 36.1416V44.2874H179.779V33.4264H181.201L181.331 34.7625C182.559 33.8143 183.636 33.1893 185.102 33.1893C187.149 33.1893 188.356 34.2668 188.356 37.176V44.2874Z" fill="#10E4F9"/>
<path d="M176.945 44.2874H175.414L175.285 42.8651C174.1 43.8995 172.958 44.5244 171.385 44.5244C169.036 44.5244 167.851 43.3392 167.851 41.4859C167.851 39.2017 169.682 37.8872 174.294 37.8872H175.113V37.0898C175.113 35.1719 174.466 34.5254 172.872 34.5254C171.471 34.5254 170.049 34.9995 168.885 35.7106L168.346 34.4823C169.833 33.6419 171.385 33.1893 172.958 33.1893C175.501 33.1893 176.794 33.9867 176.794 37.0467V41.6799C176.794 42.6065 176.88 43.5763 176.945 44.2874ZM175.113 41.5075V39.137H174.014C170.544 39.137 169.639 39.8266 169.639 41.3135C169.639 42.391 170.307 43.1884 171.708 43.1884C172.807 43.1884 173.863 42.6496 175.113 41.5075Z" fill="#10E4F9"/>
<path d="M160.739 44.2874H158.929V30H167.075L166.881 31.4654H160.739V36.314H166.191V37.7579H160.739V44.2874Z" fill="#10E4F9"/>
<path d="M151.149 42.9513L151.386 44.2443C150.826 44.4167 150.201 44.5244 149.468 44.5244C147.335 44.5244 146.581 43.6625 146.581 41.4213V34.7625H144.706V33.4264H146.581V30.3448L148.262 30.1293V33.4264H151.257L151.085 34.7625H148.262V41.2704C148.262 42.5419 148.52 43.1884 149.792 43.1884C150.266 43.1884 150.826 43.0806 151.149 42.9513Z" fill="#10E4F9"/>
<path d="M140.36 44.2874H138.679V33.4264H140.101L140.252 35.0426C141.308 33.8789 142.364 33.1893 143.441 33.1893C143.635 33.1893 143.829 33.2109 144.023 33.254L143.894 34.8271C143.678 34.8056 143.463 34.784 143.269 34.784C142.256 34.784 141.61 35.0426 140.36 36.3787V44.2874Z" fill="#10E4F9"/>
<path d="M130.747 44.5244C127.364 44.5244 125.64 42.4772 125.64 38.9C125.64 35.7106 127.428 33.1893 131.092 33.1893C134.475 33.1893 136.199 35.2366 136.199 38.8138C136.199 42.0031 134.41 44.5244 130.747 44.5244ZM130.876 43.1884C133.204 43.1884 134.432 41.6152 134.432 38.9862C134.432 35.883 133.074 34.5254 130.963 34.5254C128.635 34.5254 127.407 36.0985 127.407 38.7276C127.407 41.8307 128.764 43.1884 130.876 43.1884Z" fill="#10E4F9"/>
<path d="M116.18 47.9508H114.499V33.4264H115.921L116.05 34.7625C117.149 33.8143 118.248 33.1893 119.606 33.1893C122.364 33.1893 123.7 35.0857 123.7 38.5336C123.7 41.8954 122.278 44.5029 118.313 44.5029C117.667 44.5029 116.934 44.4167 116.18 44.2443V47.9508ZM116.18 36.1416V42.6927C116.718 42.9513 117.623 43.1668 118.55 43.1668C121.05 43.1668 121.912 41.3566 121.912 38.6845C121.912 36.077 121.115 34.547 119.347 34.547C118.27 34.547 117.3 35.1504 116.18 36.1416Z" fill="#10E4F9"/>
<path d="M111.545 35.9477L110.015 36.077C110.08 35.1288 109.024 34.5039 107.429 34.5039C105.856 34.5039 105.08 35.1504 105.08 36.1416C105.08 39.0293 111.998 36.8743 111.998 41.2058C111.998 43.5978 109.606 44.5244 107.494 44.5244C104.024 44.5244 102.968 43.1022 103.184 41.3782L104.843 41.2273C104.649 42.391 105.597 43.1668 107.623 43.1668C108.765 43.1668 110.252 42.7358 110.252 41.4428C110.252 38.5336 103.356 40.6455 103.356 36.2494C103.356 34.3746 105.015 33.1893 107.515 33.1893C109.907 33.1893 111.674 34.0298 111.545 35.9477Z" fill="#10E4F9"/>
<path d="M101.642 44.2874H92.8279V30H101.448L101.254 31.4654H94.6381V36.0985H100.133V37.5424H94.6381V42.8005H101.642V44.2874Z" fill="#10E4F9"/>
<path d="M85.4101 44.2874H77.76V30H79.5702V42.7789H85.5394L85.4101 44.2874Z" fill="#10E4F9"/>
<path d="M69.6126 44.5244C66.2293 44.5244 64.5054 42.4772 64.5054 38.9C64.5054 35.7106 66.294 33.1893 69.9574 33.1893C73.3407 33.1893 75.0647 35.2366 75.0647 38.8138C75.0647 42.0031 73.2761 44.5244 69.6126 44.5244ZM69.7419 43.1884C72.0693 43.1884 73.2976 41.6152 73.2976 38.9862C73.2976 35.883 71.94 34.5254 69.8281 34.5254C67.5008 34.5254 66.2724 36.0985 66.2724 38.7276C66.2724 41.8307 67.6301 43.1884 69.7419 43.1884Z" fill="#10E4F9"/>
<path d="M63.6501 44.2874H56V30H57.8102V42.7789H63.7794L63.6501 44.2874Z" fill="#10E4F9"/>
</svg>
