<svg width="24" height="24" viewBox="0 0 24 24" fill="none" xmlns="http://www.w3.org/2000/svg">
<g clip-path="url(#clip0_81_1425)">
<path fill-rule="evenodd" clip-rule="evenodd" d="M15.1299 3.66153C15.2274 3.64923 15.3272 3.64286 15.4289 3.64286C16.7307 3.64286 17.7861 4.69819 17.7861 6C17.7861 7.30181 16.7307 8.35714 15.4289 8.35714C15.3272 8.35714 15.2274 8.35077 15.1299 8.33847C14.5429 8.26452 14.007 8.68049 13.933 9.26758C13.859 9.85467 14.275 10.3906 14.8621 10.4645C15.0482 10.488 15.2374 10.5 15.4289 10.5C17.9142 10.5 19.929 8.48529 19.929 6C19.929 3.51471 17.9142 1.5 15.4289 1.5C15.2374 1.5 15.0482 1.51202 14.8621 1.53547C14.275 1.60944 13.859 2.14533 13.933 2.73242C14.007 3.31951 14.5429 3.73548 15.1299 3.66153ZM17.9575 12.3684C17.3911 12.1974 16.7932 12.5179 16.6221 13.0843C16.4511 13.6508 16.7716 14.2487 17.338 14.4198C19.8923 15.1912 21.7452 17.4615 21.8565 20.1485H20.1431C19.5515 20.1485 19.0716 20.6282 19.0716 21.2199C19.0716 21.8117 19.5515 22.2914 20.1431 22.2914H22.9332C23.525 22.2914 24.0047 21.8117 24.0047 21.2199V20.4048C24.0047 16.6087 21.4451 13.4217 17.9575 12.3684ZM8.57215 11.9971C3.8598 11.9971 -0.00146484 15.7388 -0.00146484 20.4048V21.2199C-0.00146484 21.8115 0.478229 22.2914 1.06996 22.2914H16.0743C16.6661 22.2914 17.1458 21.8115 17.1458 21.2199V20.4048C17.1458 15.7388 13.2845 11.9971 8.57215 11.9971ZM6.2145 6C6.2145 4.69819 7.26983 3.64286 8.57164 3.64286C9.87345 3.64286 10.9288 4.69819 10.9288 6C10.9288 7.30181 9.87345 8.35714 8.57164 8.35714C7.26983 8.35714 6.2145 7.30181 6.2145 6ZM8.57164 1.5C6.08635 1.5 4.07164 3.51471 4.07164 6C4.07164 8.48529 6.08635 10.5 8.57164 10.5C11.0569 10.5 13.0716 8.48529 13.0716 6C13.0716 3.51471 11.0569 1.5 8.57164 1.5Z" fill="#10E4F9"/>
</g>
<defs>
<clipPath id="clip0_81_1425">
<rect width="24" height="24" fill="white"/>
</clipPath>
</defs>
</svg>
