<svg width="16" height="16" viewBox="0 0 16 16" fill="none" xmlns="http://www.w3.org/2000/svg">
<path d="M7.33301 1.33334C10.6467 1.33334 13.333 4.01963 13.333 7.33334C13.333 8.75 12.8409 10.0511 12.0199 11.0775L14.3043 13.362C14.5647 13.6223 14.5647 14.0443 14.3043 14.3047C14.044 14.5651 13.622 14.5651 13.3617 14.3047L11.0771 12.0202C10.0507 12.8413 8.74967 13.3333 7.33301 13.3333C4.0193 13.3333 1.33301 10.6471 1.33301 7.33334C1.33301 4.01963 4.0193 1.33334 7.33301 1.33334ZM7.33301 2.66667C4.75568 2.66667 2.66634 4.75601 2.66634 7.33334C2.66634 9.91067 4.75568 12 7.33301 12C9.91034 12 11.9997 9.91067 11.9997 7.33334C11.9997 4.75601 9.91034 2.66667 7.33301 2.66667Z" fill="#6B7280"/>
</svg>
