<svg width="16" height="16" viewBox="0 0 16 16" fill="none" xmlns="http://www.w3.org/2000/svg">
<g clip-path="url(#clip0_103_1453)">
<path d="M6.91477 12.8733C7.10334 13.0591 7.35675 13.1643 7.62144 13.1667C7.75277 13.1669 7.88285 13.1411 8.00415 13.0908C8.12545 13.0404 8.23556 12.9665 8.32811 12.8733L13.0948 8.10667C13.1103 8.09054 13.129 8.07771 13.1496 8.06894C13.1702 8.06018 13.1924 8.05566 13.2148 8.05566C13.2372 8.05566 13.2593 8.06018 13.28 8.06894C13.3006 8.07771 13.3192 8.09054 13.3348 8.10667L13.9214 8.7C14.0051 8.78389 14.1095 8.84399 14.2241 8.87411C14.3386 8.90423 14.4591 8.90328 14.5732 8.87137C14.6873 8.83946 14.7908 8.77773 14.8731 8.69254C14.9554 8.60735 15.0135 8.50177 15.0414 8.38667L16.0014 4.62C16.0247 4.50875 16.0192 4.39338 15.9854 4.28487C15.9515 4.17635 15.8905 4.07829 15.8081 4C15.7272 3.91774 15.6262 3.85791 15.5152 3.82636C15.4042 3.79481 15.2869 3.79262 15.1748 3.82L11.4014 4.75334C11.2874 4.78189 11.1829 4.84009 11.0986 4.92205C11.0143 5.00401 10.9532 5.1068 10.9214 5.22C10.8869 5.33638 10.8848 5.45997 10.9153 5.57746C10.9459 5.69494 11.0079 5.80186 11.0948 5.88667L11.6814 6.48C11.6969 6.49441 11.7091 6.512 11.7172 6.53156C11.7252 6.55112 11.729 6.5722 11.7281 6.59334C11.7291 6.61548 11.7254 6.63758 11.7174 6.65824C11.7093 6.67889 11.6971 6.69766 11.6814 6.71334L6.91477 11.48C6.73509 11.6674 6.63477 11.917 6.63477 12.1767C6.63477 12.4363 6.73509 12.6859 6.91477 12.8733Z" fill="#10E4F9"/>
<path d="M7.69382 3.10666L2.76716 7.77333C2.736 7.80387 2.69411 7.82097 2.65049 7.82097C2.60686 7.82097 2.56498 7.80387 2.53382 7.77333L2.08049 7.33333C1.99687 7.24944 1.89241 7.18934 1.77785 7.15922C1.6633 7.12911 1.54279 7.13005 1.42872 7.16196C1.31465 7.19387 1.21114 7.2556 1.12885 7.34079C1.04655 7.42598 0.988439 7.53156 0.960488 7.64666L0.000488307 11.38C-0.0228149 11.4913 -0.0172848 11.6066 0.0165532 11.7151C0.0503912 11.8236 0.111413 11.9217 0.193822 12C0.277921 12.088 0.384512 12.1513 0.502033 12.183C0.619555 12.2148 0.743522 12.2137 0.860488 12.18L4.60049 11.2467C4.71506 11.2178 4.81991 11.1591 4.90431 11.0764C4.98872 10.9938 5.04963 10.8901 5.08083 10.7762C5.11203 10.6623 5.11239 10.5421 5.08188 10.4279C5.05136 10.3138 4.99106 10.2098 4.90716 10.1267L4.18049 9.4C4.15067 9.36712 4.13405 9.32438 4.13382 9.28C4.13423 9.25842 4.1392 9.23717 4.14839 9.21764C4.15758 9.19811 4.17079 9.18074 4.18716 9.16666L9.06716 4.56C9.25344 4.37638 9.36037 4.12709 9.36501 3.86556C9.36965 3.60404 9.27164 3.3511 9.09199 3.16099C8.91235 2.97088 8.66536 2.85872 8.40399 2.84856C8.14262 2.83841 7.88768 2.93106 7.69382 3.10666Z" fill="#10E4F9"/>
</g>
<defs>
<clipPath id="clip0_103_1453">
<rect width="16" height="16" fill="white"/>
</clipPath>
</defs>
</svg>
