<svg width="24" height="24" viewBox="0 0 24 24" fill="none" xmlns="http://www.w3.org/2000/svg">
<path fill-rule="evenodd" clip-rule="evenodd" d="M10.5523 2.16204C12.3634 0.905096 14.7988 2.23284 14.7575 4.42007V19.6161C14.7093 21.7944 12.1896 23.0805 10.4009 21.8392C10.3523 21.8054 10.3067 21.7677 10.2643 21.7265L4.84087 16.4461H2.75338C1.24248 16.4461 0 15.1952 0 13.6876V10.3135C0 8.80598 1.24248 7.55503 2.75338 7.55503H4.84898L10.4258 2.26493C10.4653 2.22748 10.5075 2.19307 10.5523 2.16204ZM12.6149 4.38335C12.6253 3.94574 12.1808 3.69571 11.826 3.8903L6.01368 9.4038C5.81462 9.59263 5.55069 9.69789 5.2763 9.69789H2.75338C2.43207 9.69789 2.14286 9.9833 2.14286 10.3135V13.6876C2.14286 14.0179 2.43207 14.3033 2.75338 14.3033H5.2763C5.5555 14.3033 5.82369 14.4123 6.02373 14.607L11.6789 20.113C11.8473 20.2029 12.056 20.2042 12.2581 20.101C12.4798 19.9881 12.6066 19.7933 12.6146 19.5775V4.40879L12.6149 4.38335ZM20.3647 5.01319C20.9721 4.64541 21.7625 4.83969 22.1304 5.44709C23.3253 7.42041 23.97 9.67754 23.9981 11.9842V12.0155C23.97 14.3222 23.3253 16.5793 22.1304 18.5525C21.7625 19.1601 20.9721 19.3543 20.3647 18.9864C19.7571 18.6187 19.5629 17.8281 19.9308 17.2207C20.8851 15.6445 21.4015 13.8422 21.4267 11.9998C21.4015 10.1575 20.8851 8.35519 19.9308 6.77894C19.5629 6.17152 19.7571 5.38097 20.3647 5.01319ZM16.8553 8.48642C17.4026 8.03383 18.2129 8.11049 18.6655 8.65766C19.4414 9.59558 19.8454 10.785 19.8026 12.0001C19.8454 13.2151 19.4414 14.4045 18.6655 15.3425C18.2129 15.8896 17.4026 15.9663 16.8553 15.5137C16.3082 15.0611 16.2315 14.2507 16.6841 13.7035C17.0647 13.2434 17.2599 12.6577 17.2315 12.0612C17.2296 12.0205 17.2296 11.9797 17.2315 11.9389C17.2599 11.3424 17.0647 10.7568 16.6841 10.2966C16.2315 9.74945 16.3082 8.93901 16.8553 8.48642Z" fill="#0B0B0F"/>
</svg>
