<svg width="24" height="24" viewBox="0 0 24 24" fill="none" xmlns="http://www.w3.org/2000/svg">
<path fill-rule="evenodd" clip-rule="evenodd" d="M10.5485 2.16529C12.3592 0.908626 14.7941 2.23607 14.7527 4.4228V19.6132C14.7045 21.7912 12.1855 23.0767 10.3971 21.8356C10.3486 21.802 10.3029 21.7643 10.2606 21.7231L4.83929 16.4448H2.75275C1.24219 16.4448 0 15.1941 0 13.6869V10.314C0 8.80683 1.24219 7.55619 2.75275 7.55619H4.84738L10.422 2.26818C10.4615 2.23072 10.5037 2.19632 10.5485 2.16529ZM12.6102 4.38608C12.6206 3.94895 12.1766 3.69923 11.8222 3.89356L6.0121 9.40494C5.81302 9.59377 5.54911 9.69905 5.27472 9.69905H2.75275C2.43178 9.69905 2.14286 9.98417 2.14286 10.314V13.6869C2.14286 14.0168 2.43178 14.3019 2.75275 14.3019H5.27472C5.55393 14.3019 5.82209 14.4109 6.02215 14.6057L11.6752 20.1096C11.8434 20.1993 12.0518 20.2005 12.2537 20.0976C12.4752 19.9847 12.6019 19.7901 12.6099 19.5744V4.41152L12.6102 4.38608ZM23.6208 8.56885C24.1229 9.07095 24.1229 9.88501 23.6208 10.3871L22.008 12L23.6208 13.6128C24.1229 14.1149 24.1229 14.929 23.6208 15.4311C23.1187 15.9332 22.3046 15.9332 21.8025 15.4311L20.1897 13.8182L18.5769 15.4311C18.0747 15.9332 17.2606 15.9332 16.7585 15.4311C16.2565 14.929 16.2565 14.1149 16.7585 13.6128L18.3713 12L16.7585 10.3871C16.2565 9.88501 16.2565 9.07095 16.7585 8.56885C17.2606 8.06674 18.0747 8.06674 18.5769 8.56885L20.1897 10.1817L21.8025 8.56885C22.3046 8.06674 23.1187 8.06674 23.6208 8.56885Z" fill="#0B0B0F"/>
</svg>
